<svg width="256" height="256" viewBox="0 0 256 256" fill="none" xmlns="http://www.w3.org/2000/svg">
<path d="M128 18C188.751 18 238 67.2487 238 128C238 188.751 188.751 238 128 238C67.2487 238 18 188.751 18 128C18 67.2487 67.2487 18 128 18ZM128.5 51C85.6979 51 51 85.6979 51 128.5C51 171.302 85.6979 206 128.5 206C171.302 206 206 171.302 206 128.5C206 85.6979 171.302 51 128.5 51Z" fill="#FFCC00"/>
<path d="M128 18C188.751 18 238 67.2487 238 128C238 188.751 188.751 238 128 238C67.2487 238 18 188.751 18 128C18 67.2487 67.2487 18 128 18ZM128 22C69.4578 22 22 69.4578 22 128C22 186.542 69.4578 234 128 234C186.542 234 234 186.542 234 128C234 69.4578 186.542 22 128 22Z" fill="#D0A700"/>
<path d="M128 47C173.287 47 210 83.7127 210 129C210 174.287 173.287 211 128 211C82.7127 211 46 174.287 46 129C46 83.7127 82.7127 47 128 47ZM128.5 51C85.6979 51 51 85.6979 51 128.5C51 171.302 85.6979 206 128.5 206C171.302 206 206 171.302 206 128.5C206 85.6979 171.302 51 128.5 51Z" fill="#D0A700"/>
</svg>
